<svg width="19" height="16" viewBox="0 0 19 16" fill="none" xmlns="http://www.w3.org/2000/svg">
<path d="M1.08994 7.11H1.98994V12.51H1.08994H1.06182C0.583691 12.51 0.161816 12.1163 0.161816 11.6381C0.161816 11.6381 0.189941 11.6381 0.189941 11.61V8.01C0.189941 7.53188 0.583691 7.11 1.06182 7.11C1.06182 7.11 1.06182 7.11 1.08994 7.11ZM15.4899 5.76V13.41C15.4618 14.4225 14.6743 15.21 13.6899 15.21H4.68994C3.67744 15.21 2.88994 14.4225 2.88994 13.41V5.76C2.88994 4.5225 3.87432 3.51 5.11182 3.51C5.11182 3.51 5.11182 3.51 5.13994 3.51H8.28994V1.71C8.28994 1.23188 8.68369 0.810004 9.18994 0.810004C9.66807 0.810004 10.0899 1.23188 10.0899 1.71V3.51H13.2399C14.4774 3.51 15.4899 4.5225 15.4899 5.76ZM7.61494 8.01C7.61494 7.39125 7.10869 6.885 6.48994 6.885C5.84307 6.885 5.36494 7.39125 5.36494 8.01C5.36494 8.65688 5.84307 9.135 6.48994 9.135C7.10869 9.135 7.61494 8.65688 7.61494 8.01ZM7.38994 11.61H5.58994V12.51H7.38994V11.61ZM10.0899 11.61H8.28994V12.51H10.0899V11.61ZM13.0149 8.01C13.0149 7.39125 12.5087 6.885 11.8899 6.885C11.2431 6.885 10.7649 7.39125 10.7649 8.01C10.7649 8.65688 11.2431 9.135 11.8899 9.135C12.5087 9.135 13.0149 8.65688 13.0149 8.01ZM12.7899 11.61H10.9899V12.51H12.7899V11.61ZM18.1899 8.01V11.61V11.6381C18.1899 12.1163 17.7681 12.5381 17.2899 12.5381V12.51H16.3899V7.11H17.2899C17.7681 7.11 18.1899 7.53188 18.1899 8.01Z" fill="#2C3E50"/>
</svg>
