<svg width="15" height="14" viewBox="0 0 15 14" fill="none" xmlns="http://www.w3.org/2000/svg">
<path d="M14.375 7.01C14.375 10.8631 11.225 13.985 7.39995 13.985C3.54683 13.985 0.424951 10.8631 0.424951 7.01C0.424951 3.185 3.54683 0.035004 7.39995 0.035004C11.225 0.035004 14.375 3.185 14.375 7.01ZM6.58433 10.7225L11.7593 5.5475C11.9281 5.37875 11.9281 5.06938 11.7593 4.90063L11.1125 4.28188C10.9437 4.085 10.6625 4.085 10.4937 4.28188L6.27495 8.50063L4.27808 6.53188C4.10933 6.335 3.82808 6.335 3.65933 6.53188L3.01245 7.15063C2.8437 7.31938 2.8437 7.62875 3.01245 7.7975L5.93745 10.7225C6.1062 10.8913 6.41558 10.8913 6.58433 10.7225Z" fill="white"/>
</svg>
