<svg width="19" height="16" viewBox="0 0 19 16" fill="none" xmlns="http://www.w3.org/2000/svg">
<path d="M15.0399 13.41C15.2649 13.41 15.4899 13.635 15.4899 13.86V14.76C15.4899 15.0131 15.2649 15.21 15.0399 15.21H3.33994C3.08682 15.21 2.88994 15.0131 2.88994 14.76V13.86C2.88994 13.635 3.08682 13.41 3.33994 13.41H15.0399ZM16.8399 4.41C17.5712 4.41 18.1899 5.02875 18.1899 5.76C18.1899 6.51938 17.5712 7.11 16.8399 7.11C16.7556 7.11 16.6712 7.11 16.6149 7.11L14.5899 12.51H3.78994L1.73682 7.11C1.68057 7.11 1.59619 7.11 1.53994 7.11C0.780566 7.11 0.189941 6.51938 0.189941 5.76C0.189941 5.02875 0.780566 4.41 1.53994 4.41C2.27119 4.41 2.88994 5.02875 2.88994 5.76C2.88994 5.985 2.83369 6.15375 2.74932 6.3225L4.80244 7.56C5.22432 7.81313 5.78682 7.6725 6.03994 7.2225L8.31807 3.20063C8.03682 2.97563 7.83994 2.58188 7.83994 2.16C7.83994 1.42875 8.43057 0.810004 9.18994 0.810004C9.92119 0.810004 10.5399 1.42875 10.5399 2.16C10.5399 2.58188 10.3431 2.97563 10.0337 3.20063L12.3118 7.2225C12.5649 7.6725 13.1274 7.81313 13.5774 7.56L15.6024 6.3225C15.5181 6.15375 15.4899 5.985 15.4899 5.76C15.4899 5.02875 16.0806 4.41 16.8399 4.41Z" fill="#2C3E50"/>
</svg>
