<svg width="15" height="14" viewBox="0 0 15 14" fill="none" xmlns="http://www.w3.org/2000/svg">
<path d="M7.38994 0.035004C11.2431 0.035004 14.3649 3.15688 14.3649 7.01C14.3649 10.8631 11.2431 13.985 7.38994 13.985C3.53682 13.985 0.414941 10.8631 0.414941 7.01C0.414941 3.15688 3.53682 0.035004 7.38994 0.035004ZM9.97744 8.83813C10.0337 8.78188 10.0899 8.66938 10.0899 8.55688C10.0899 8.41625 10.0056 8.30375 9.92119 8.21938L8.28994 7.01V2.96C8.28994 2.735 8.06494 2.51 7.83994 2.51H6.93994C6.68682 2.51 6.48994 2.735 6.48994 2.96V7.3475C6.48994 7.71313 6.63057 8.0225 6.91182 8.21938L8.79619 9.62563C8.85244 9.68188 8.96494 9.73813 9.04932 9.73813C9.21807 9.73813 9.33057 9.65375 9.41494 9.54125L9.97744 8.83813Z" fill="#2C3E50"/>
</svg>
