<svg width="40" height="41" viewBox="0 0 40 41" fill="none" xmlns="http://www.w3.org/2000/svg">
<path d="M6.25 21.75H33.75C34.4404 21.75 35 21.1904 35 20.5C35 19.8096 34.4404 19.25 33.75 19.25H6.25C5.55964 19.25 5 19.8096 5 20.5C5 21.1904 5.55964 21.75 6.25 21.75Z" fill="#1C1C1C"/>
<path d="M31.9822 20.5L21.6161 30.8661C21.3817 31.1005 21.25 31.4185 21.25 31.75C21.25 32.0815 21.3817 32.3995 21.6161 32.6339C21.8505 32.8683 22.1685 33 22.5 33C22.8315 33 23.1495 32.8683 23.3839 32.6339L34.6339 21.3839C35.122 20.8957 35.122 20.1043 34.6339 19.6161L23.3839 8.36612C23.1495 8.1317 22.8315 8 22.5 8C22.1685 8 21.8505 8.1317 21.6161 8.36612C21.3817 8.60054 21.25 8.91848 21.25 9.25C21.25 9.58152 21.3817 9.89946 21.6161 10.1339L31.9822 20.5Z" fill="#1C1C1C"/>
</svg>
